# AST/ASF file generated using VICON BodyLanguage
# -----------------------------------------------
:version 1.10
:name VICON
:units
  mass 1.0
  length 0.45
  angle deg
:documentation
   .ast/.asf automatically generated from VICON data using
   VICON BodyBuilder and BodyLanguage model FoxedUp or BRILLIANT.MOD
:root
   order TX TY TZ RX RY RZ
   axis XYZ
   position 0 0 0  
   orientation 0 0 0 
:bonedata
  begin
     id 1 
     name lhipjoint
     direction 0.541323 -0.757556 0.364798 
     length 2.47576 
     axis 0 0 0  XYZ
  end
  begin
     id 2 
     name lfemur
     direction 0.34202 -0.939693 0  
     length 7.46493  
     axis 0 0 20  XYZ
    dof rx ry rz
    limits (-160.0 20.0)
           (-70.0 70.0)
           (-60.0 70.0)
  end
  begin
     id 3 
     name ltibia
     direction 0.34202 -0.939693 0   
     length 7.73805   
     axis 0 0 20   XYZ
    dof rx
    limits (-10.0 170.0)
  end
  begin
     id 4 
     name lfoot
     direction 0.107174 -0.294458 0.949636   
     length 2.25864   
     axis -90 7.62852e-016 20   XYZ
    dof rx rz
    limits (-45.0 90.0)
           (-70.0 20.0)
  end
  begin
     id 5 
     name ltoes
     direction 1.53606e-011 -4.21934e-011 1   
     length 1.12451   
     axis -90 7.62852e-016 20   XYZ
    dof rx
    limits (-90.0 20.0)
  end
  begin
     id 6 
     name rhipjoint
     direction -0.524745 -0.766967 0.36933   
     length 2.44538  
     axis 0 0 0  XYZ 
  end
  begin
     id 7 
     name rfemur
     direction -0.34202 -0.939693 0   
     length 7.61604   
     axis 0 0 -20   XYZ
    dof rx ry rz
    limits (-160.0 20.0)
           (-70.0 70.0)
           (-70.0 60.0)
  end
  begin
     id 8 
     name rtibia
     direction -0.34202 -0.939693 0   
     length 7.61056   
     axis 0 0 -20   XYZ
    dof rx
    limits (-10.0 170.0)
 end
 begin
     id 9 
     name rfoot
     direction -0.12616 -0.346623 0.929482   
     length 2.46372  
     axis -90 -7.62852e-016 -20   XYZ
    dof rx rz
    limits (-45.0 90.0)
           (-20.0 70.0)
  end
  begin
     id 10 
     name rtoes
     direction -1.53531e-011 -4.22004e-011 1   
     length 1.21611   
     axis -90 -7.62852e-016 -20   XYZ
    dof rx
    limits (-90.0 20.0)
  end
  begin
     id 11 
     name lowerback
     direction -0.000778023 0.997293 -0.0735223   
     length 2.06139   
     axis 0 0 0   XYZ
    dof rx ry rz
    limits (-20.0 45.0)
           (-30.0 30.0)
           (-30.0 30.0)
  end
  begin
     id 12 
     name upperback
     direction 0.0222598 0.999722 -0.0078355   
     length 2.06383   
     axis 0 0 0   XYZ
    dof rx ry rz
    limits (-20.0 45.0)
           (-30.0 30.0)
           (-30.0 30.0)
  end
  begin
     id 13 
     name thorax
     direction 0.0219654 0.999405 0.0265994   
     length 2.07163   
     axis 0 0 0   XYZ
    dof rx ry rz
    limits (-20.0 45.0)
           (-30.0 30.0)
           (-30.0 30.0)
  end
  begin
     id 14 
     name lowerneck
     direction 0.0213282 0.988147 0.15202   
     length 1.75969   
     axis 0 0 0   XYZ
    dof rx ry rz
    limits (-20.0 45.0)
           (-30.0 30.0)
           (-30.0 30.0)
  end
  begin
     id 15 
     name upperneck
     direction -0.0546456 0.982624 -0.177379   
     length 1.79244   
     axis 0 0 0   XYZ
    dof rx ry rz
    limits (-20.0 45.0)
           (-30.0 30.0)
           (-30.0 30.0)
  end
  begin
     id 16
     name head
     direction -0.0199987 0.996855 -0.076686  
     length 1.80555  
     axis 0 0 0   XYZ
    dof rx ry rz
    limits (-20.0 45.0)
           (-30.0 30.0)
           (-30.0 30.0)
  end
  begin
     id 17 
     name lclavicle
     direction 0.929565 0.363219 -0.063096  
     length 3.55722  
     axis 0 0 0   XYZ
    dof ry rz
    limits (-20.0 10.0)
           (0.0 20.0)
  end
  begin
     id 18 
     name lhumerus
     direction 1 -4.48993e-011 -2.36203e-027   
     length 4.92785   
     axis 180 -30 -90   XYZ
    dof rx ry rz
    limits (-60.0 90.0)
           (-90.0 90.0)
           (-90.0 90.0)
  end
  begin
     id 19
     name lradius
     direction 1 -4.48947e-011 2.02997e-027   
     length 3.44052   
     axis 180 -30 -90   XYZ
    dof rx
    limits (-10.0 170.0)
  end
  begin
     id 20
     name lwrist
     direction 1 -4.48962e-011 1.45991e-027   
     length 1.72026   
     axis 1.49639e-024 90 90   XYZ
    dof ry
    limits (-180.0 0.0)
 end
  begin
     id 21 
     name lhand
     direction 1 -4.48984e-011 2.91906e-027   
     length 0.654326   
     axis -1.863e-015 90 90   XYZ
    dof rx rz
    limits (-90.0 90.0)
           (-45.0 45.0)
  end
  begin
     id 22 
     name lfingers
     direction 1 -4.48961e-011 5.83968e-027   
     length 0.527534   
     axis -3.72598e-015 90 90   XYZ
    dof rx
    limits (0.0 90.0)
  end
  begin
     id 23
     name lthumb
     direction 0.707107 -6.34963e-011 0.707107   
     length 0.757437   
     axis -90 45 -6.68868e-015   XYZ
    dof rx rz
    limits (-45.0 45.0)
           (-45.0 45.0)
  end
  begin
     id 24 
     name rclavicle
     direction -0.902944 0.422599 -0.0781198   
     length 3.54432  
     axis 0 0 0   XYZ 
    dof ry rz
    limits (-10.0 20.0)
           (-20.0 0.0)
  end
  begin
     id 25 
     name rhumerus
     direction -1 -4.48953e-011 -4.75835e-028  
     length 5.09181   
     axis 180 30 90   XYZ
    dof rx ry rz
    limits (-90.0 60.0)
           (-90.0 90.0)
           (-90.0 90.0)
  end
  begin
     id 26 
     name rradius
     direction -1 -4.48986e-011 -3.25889e-027   
     length 3.49865   
     axis 180 30 90   XYZ
    dof rx
    limits (-10.0 170.0)
  end
  begin
     id 27 
     name rwrist
     direction -1 -4.48963e-011 1.45989e-027   
     length 1.74933   
     axis 1.49639e-024 -90 -90   XYZ
    dof ry
    limits (-180.0 0.0)
  end
  begin
     id 28
     name rhand
     direction -1 -4.49003e-011 2.91844e-027   
     length 0.66641   
     axis -1.863e-015 -90 -90   XYZ
    dof rx rz
    limits (-90.0 90.0)
           (-45.0 45.0)
  end
  begin
     id 29
     name rfingers
     direction -1 -4.48973e-011 5.83886e-027   
     length 0.537277   
     axis -3.72598e-015 -90 -90   XYZ
    dof rx
    limits (0.0 90.0)
  end
  begin
     id 30
     name rthumb
     direction -0.707107 -6.34976e-011 0.707107   
     length 0.771425   
     axis -90 -45 6.68868e-015   XYZ
    dof rx rz
    limits (-45.0 45.0)
           (-45.0 45.0)
  end
:hierarchy
  begin
    root lhipjoint rhipjoint lowerback
    lhipjoint lfemur
    lfemur ltibia
    ltibia lfoot
    lfoot ltoes
    rhipjoint rfemur
    rfemur rtibia
    rtibia rfoot
    rfoot rtoes
    lowerback upperback
    upperback thorax
    thorax lowerneck lclavicle rclavicle
    lowerneck upperneck
    upperneck head
    lclavicle lhumerus
    lhumerus lradius
    lradius lwrist
    lwrist lhand lthumb
    lhand lfingers
    rclavicle rhumerus
    rhumerus rradius
    rradius rwrist
    rwrist rhand rthumb
    rhand rfingers
  end

#!OML:ASF H:\LiuWeirdWalks\Patient Classification 1\Patient 1\Session 1\male.ASF
:FULLY-SPECIFIED
:DEGREES
140
root 1.40488 17.7859 -27.8173 2.45492 8.96087 -2.24791
lowerback 4.45342 -0.612644 -6.40656
upperback -1.05467 -1.15009 1.12075
thorax -3.45022 -0.426645 4.85059
lowerneck -15.4472 0.0454984 10.2718
upperneck 28.3111 -1.13651 -5.77874
head 11.7135 -0.137833 -4.09059
rclavicle 3.3371e-014 -7.95139e-015
rhumerus -36.3465 -12.3898 -77.3111
rradius 26.5293
rwrist -4.21495
rhand -14.4345 -2.91294
rfingers 7.12502
rthumb 11.7102 -32.5656
lclavicle 3.3371e-014 -7.95139e-015
lhumerus -31.4629 -1.72766 83.4699
lradius 25.0019
lwrist 5.403
lhand -11.5473 0.652905
lfingers 7.12502
lthumb 14.4932 30.1267
rfemur -17.9129 -11.2815 13.1654
rtibia 71.0402
rfoot 5.85282 -9.30549
rtoes -3.54419
lfemur -12.414 3.63829 -22.3406
ltibia 31.5577
lfoot -16.8654 4.3394
ltoes -5.12237
141
root 1.40641 17.7908 -27.8124 2.50462 9.02226 -2.31524
lowerback 4.45516 -0.598343 -6.49891
upperback -1.05944 -1.13761 1.09072
thorax -3.45702 -0.418419 4.87067
lowerneck -15.425 0.021015 10.2524
upperneck 28.2583 -1.19508 -5.67324
head 11.6848 -0.154357 -4.05266
rclavicle 4.69629e-015 2.38542e-015
rhumerus -36.3806 -12.4856 -77.2792
rradius 26.3496
rwrist -4.05407
rhand -14.4022 -2.90992
rfingers 7.12502
rthumb 11.7412 -32.5609
lclavicle 4.69629e-015 2.38542e-015
lhumerus -31.4104 -1.63887 83.3495
lradius 24.9448
lwrist 5.31943
lhand -11.5775 0.605315
lfingers 7.12502
lthumb 14.4641 30.0812
rfemur -17.8916 -11.2607 13.1931
rtibia 70.9999
rfoot 6.43674 -8.96756
rtoes -3.78854
lfemur -12.4548 3.70367 -22.2423
ltibia 31.544
lfoot -16.852 4.12027
ltoes -5.16309
142
root 1.40722 17.7957 -27.8079 2.55561 9.08599 -2.38606
lowerback 4.46177 -0.603978 -6.59982
upperback -1.06482 -1.15208 1.07639
thorax -3.46322 -0.423265 4.91401
lowerneck -15.4029 0.0310626 10.2519
upperneck 28.1915 -1.19852 -5.60463
head 11.6555 -0.149169 -4.02408
rclavicle -3.71727e-014 -1.11319e-014
rhumerus -36.3851 -12.5009 -77.2675
rradius 26.1753
rwrist -3.90951
rhand -14.3795 -2.93007
rfingers 7.12502
rthumb 11.7631 -32.5798
lclavicle -3.71727e-014 -1.11319e-014
lhumerus -31.3732 -1.4833 83.2281
lradius 24.8973
lwrist 5.22485
lhand -11.6369 0.558319
lfingers 7.12502
lthumb 14.4069 30.0383
rfemur -17.8707 -11.2391 13.2319
rtibia 70.9204
rfoot 6.96072 -8.65519
rtoes -4.18764
lfemur -12.5004 3.76841 -22.1372
ltibia 31.5343
lfoot -16.8354 3.89871
ltoes -5.22048
143
root 1.4074 17.8008 -27.8036 2.6077 9.15094 -2.46449
lowerback 4.47344 -0.622241 -6.69845
upperback -1.07124 -1.18338 1.07142
thorax -3.47093 -0.436346 4.96713
lowerneck -15.3874 0.0623537 10.2647
upperneck 28.1207 -1.16836 -5.56175
head 11.6288 -0.130876 -4.00301
rclavicle -2.48729e-014 -1.74931e-014
rhumerus -36.372 -12.4607 -77.2742
rradius 26.0143
rwrist -3.778
rhand -14.3658 -2.96845
rfingers 7.12502
rthumb 11.7764 -32.6174
lclavicle -2.48729e-014 -1.74931e-014
lhumerus -31.3481 -1.29499 83.1087
lradius 24.8647
lwrist 5.14127
lhand -11.7157 0.540751
lfingers 7.12502
lthumb 14.3309 30.0261
rfemur -17.8513 -11.2152 13.2864
rtibia 70.8027
rfoot 7.42618 -8.37151
rtoes -4.69802
lfemur -12.5521 3.82782 -22.0222
ltibia 31.5294
lfoot -16.8167 3.68191
ltoes -5.29049
144
root 1.40711 17.8057 -27.7998 2.66105 9.21748 -2.5514
lowerback 4.49199 -0.659459 -6.79389
upperback -1.0797 -1.23989 1.08078
thorax -3.48085 -0.461754 5.0354
lowerneck -15.3867 0.125008 10.2918
upperneck 28.0557 -1.08791 -5.55626
head 11.6116 -0.0930315 -3.9923
rclavicle 8.62228e-015 -1.23246e-014
rhumerus -36.3401 -12.3378 -77.3036
rradius 25.8724
rwrist -3.66647
rhand -14.3605 -3.0197
rfingers 7.12502
rthumb 11.7815 -32.6683
lclavicle 8.62228e-015 -1.23246e-014
lhumerus -31.3384 -1.05269 82.99
lradius 24.8491
lwrist 5.07725
lhand -11.7998 0.56439
lfingers 7.12502
lthumb 14.2499 30.0555
rfemur -17.8325 -11.189 13.3561
rtibia 70.6487
rfoot 7.83138 -8.11858
rtoes -5.24698
lfemur -12.611 3.87631 -21.898
ltibia 31.53
lfoot -16.7977 3.47725
ltoes -5.36666
145
root 1.40651 17.8104 -27.7964 2.71544 9.28697 -2.64656
lowerback 4.51799 -0.721835 -6.8867
upperback -1.09012 -1.32984 1.10953
thorax -3.49182 -0.503552 5.12507
lowerneck -15.4023 0.229179 10.3353
upperneck 27.9978 -0.940252 -5.5989
head 11.6063 -0.0290911 -3.99408
rclavicle -8.02593e-015 -3.97569e-016
rhumerus -36.285 -12.1098 -77.3576
rradius 25.7506
rwrist -3.58016
rhand -14.3618 -3.0773
rfingers 7.12502
rthumb 11.7802 -32.726
lclavicle -8.02593e-015 -3.97569e-016
lhumerus -31.3458 -0.733177 82.8708
lradius 24.8504
lwrist 5.03648
lhand -11.8696 0.623197
lfingers 7.12502
lthumb 14.1827 30.119
rfemur -17.8121 -11.1621 13.4392
rtibia 70.4607
rfoot 8.17267 -7.89929
rtoes -5.7155
lfemur -12.6777 3.90902 -21.7665
ltibia 31.5373
lfoot -16.7804 3.29137
ltoes -5.44165
146
root 1.40573 17.8148 -27.7933 2.77071 9.36118 -2.74887
lowerback 4.54927 -0.805207 -6.97463
upperback -1.1007 -1.44743 1.1544
thorax -3.50136 -0.559091 5.23097
lowerneck -15.4294 0.366176 10.3867
upperneck 27.9457 -0.738537 -5.67732
head 11.6104 0.0556619 -4.00377
rclavicle -3.05631e-015 -1.27222e-014
rhumerus -36.2101 -11.7939 -77.4318
rradius 25.6514
rwrist -3.52199
rhand -14.3685 -3.1363
rfingers 7.12502
rthumb 11.7738 -32.7854
lclavicle -3.05631e-015 -1.27222e-014
lhumerus -31.3631 -0.352045 82.7531
lradius 24.8632
lwrist 5.01372
lhand -11.9144 0.690292
lfingers 7.12502
lthumb 14.1395 30.1892
rfemur -17.7879 -11.1367 13.5326
rtibia 70.2412
rfoot 8.44662 -7.71545
rtoes -6.01936
lfemur -12.7524 3.92272 -21.6302
ltibia 31.5518
lfoot -16.766 3.12974
ltoes -5.50987
147
root 1.40487 17.8189 -27.7904 2.82741 9.44147 -2.85677
lowerback 4.5836 -0.911359 -7.05957
upperback -1.11085 -1.59489 1.2178
thorax -3.50689 -0.629549 5.35684
lowerneck -15.4563 0.537443 10.4412
upperneck 27.8924 -0.478607 -5.78958
head 11.6198 0.162712 -4.01875
rclavicle 8.22472e-015 7.15625e-015
rhumerus -36.114 -11.3821 -77.5243
rradius 25.5762
rwrist -3.49881
rhand -14.3777 -3.19245
rfingers 7.12502
rthumb 11.7649 -32.842
lclavicle 8.22472e-015 7.15625e-015
lhumerus -31.39 0.100207 82.6377
lradius 24.8842
lwrist 4.99806
lhand -11.9305 0.747462
lfingers 7.12502
lthumb 14.124 30.2474
rfemur -17.7595 -11.1152 13.6337
rtibia 69.9933
rfoot 8.65544 -7.56824
rtoes -6.09085
lfemur -12.8363 3.91635 -21.4922
ltibia 31.574
lfoot -16.7542 2.99643
ltoes -5.57255
148
root 1.40398 17.8228 -27.7877 2.88633 9.52781 -2.96816
lowerback 4.61907 -1.02729 -7.13736
upperback -1.1205 -1.75485 1.28921
thorax -3.50988 -0.706423 5.48802
lowerneck -15.4692 0.719178 10.4873
upperneck 27.8309 -0.197315 -5.91
head 11.6257 0.27737 -4.03179
rclavicle 1.92076e-014 -9.54166e-015
rhumerus -36.0107 -10.9239 -77.6251
rradius 25.5267
rwrist -3.50719
rhand -14.3868 -3.23984
rfingers 7.12502
rthumb 11.7562 -32.8899
lclavicle 1.92076e-014 -9.54166e-015
lhumerus -31.4185 0.574862 82.5294
lradius 24.9105
lwrist 4.98893
lhand -11.921 0.787651
lfingers 7.12502
lthumb 14.1331 30.287
rfemur -17.729 -11.0992 13.7397
rtibia 69.7204
rfoot 8.80653 -7.45644
rtoes -5.92879
lfemur -12.9309 3.89114 -21.3555
ltibia 31.6045
lfoot -16.7438 2.89428
ltoes -5.63365
149
root 1.40309 17.8264 -27.7854 2.94859 9.61843 -3.08159
lowerback 4.65297 -1.14335 -7.20496
upperback -1.12963 -1.91429 1.36082
thorax -3.51094 -0.783364 5.61363
lowerneck -15.4555 0.893675 10.5152
upperneck 27.755 0.0779667 -6.01805
head 11.6206 0.38884 -4.03681
rclavicle 2.40032e-014 -6.36111e-015
rhumerus -35.9113 -10.4513 -77.7293
rradius 25.5065
rwrist -3.54673
rhand -14.3934 -3.27679
rfingers 7.12502
rthumb 11.7498 -32.9272
lclavicle 2.40032e-014 -6.36111e-015
lhumerus -31.4439 1.03636 82.4315
lradius 24.94
lwrist 4.98031
lhand -11.9021 0.818148
lfingers 7.12502
lthumb 14.1514 30.3162
rfemur -17.7002 -11.0884 13.8492
rtibia 69.4265
rfoot 8.91121 -7.37757
rtoes -5.58944
lfemur -13.0385 3.84955 -21.2226
ltibia 31.6442
lfoot -16.7327 2.82585
ltoes -5.69941
150
root 1.40223 17.8298 -27.7834 3.01458 9.71091 -3.19596
lowerback 4.68443 -1.23719 -7.25388
upperback -1.13877 -2.0434 1.41421
thorax -3.51566 -0.845635 5.70741
lowerneck -15.4163 1.02534 10.5172
upperneck 27.6668 0.288673 -6.08167
head 11.5995 0.47405 -4.02859
rclavicle -4.07757e-014 1.66979e-014
rhumerus -35.8414 -10.0417 -77.8266
rradius 25.5226
rwrist -3.61262
rhand -14.3982 -3.30466
rfingers 7.12502
rthumb 11.7451 -32.9554
lclavicle -4.07757e-014 1.66979e-014
lhumerus -31.4533 1.39992 82.3513
lradius 24.9699
lwrist 4.98006
lhand -11.8869 0.853435
lfingers 7.12502
lthumb 14.166 30.3505
rfemur -17.6768 -11.0819 13.9608
rtibia 69.1157
rfoot 8.98129 -7.32735
rtoes -5.17367
lfemur -13.1607 3.79291 -21.0954
ltibia 31.6944
lfoot -16.7196 2.79433
ltoes -5.77315
151
root 1.40141 17.8328 -27.7819 3.08367 9.80248 -3.31206
lowerback 4.71353 -1.30195 -7.28076
upperback -1.14762 -2.13299 1.44429
thorax -3.52585 -0.888696 5.76149
lowerneck -15.363 1.10609 10.4964
upperneck 27.5745 0.419737 -6.09622
head 11.5662 0.527225 -4.00855
rclavicle 2.25124e-014 1.51076e-014
rhumerus -35.8068 -9.71737 -77.9154
rradius 25.5758
rwrist -3.70104
rhand -14.4025 -3.32952
rfingers 7.12502
rthumb 11.741 -32.9805
lclavicle 2.25124e-014 1.51076e-014
lhumerus -31.4427 1.64319 82.2902
lradius 25.0003
lwrist 4.98984
lhand -11.8849 0.90118
lfingers 7.12502
lthumb 14.1679 30.3981
rfemur -17.6613 -11.0768 14.0755
rtibia 68.7925
rfoot 9.02668 -7.3024
rtoes -4.78821
lfemur -13.298 3.72062 -20.9739
ltibia 31.7564
lfoot -16.7038 2.80444
ltoes -5.85408
